<svg width="46" height="46" viewBox="0 0 46 46" fill="none" xmlns="http://www.w3.org/2000/svg">
<g clip-path="url(#clip0_0_441)">
<circle cx="23" cy="23" r="23" fill="black"/>
<mask id="mask0_0_441" style="mask-type:alpha" maskUnits="userSpaceOnUse" x="0" y="0" width="46" height="46">
<circle cx="23" cy="23" r="23" fill="white"/>
</mask>
<g mask="url(#mask0_0_441)">
</g>
<g clip-path="url(#clip1_0_441)">
<g filter="url(#filter0_i_0_441)">
<path fill-rule="evenodd" clip-rule="evenodd" d="M1.5226 24.0078C0.774068 22.323 1.56694 20.3529 3.27389 19.6562L24.9263 10.8195C26.5042 10.1756 28.312 10.8526 29.0788 12.3746L39.0788 32.2243C39.9137 33.8817 39.2022 35.9009 37.5128 36.6688L15.2488 46.7879C13.5962 47.539 11.6481 46.799 10.9111 45.14L1.5226 24.0078Z" fill="url(#paint0_linear_0_441)"/>
</g>
<g filter="url(#filter1_di_0_441)">
<path fill-rule="evenodd" clip-rule="evenodd" d="M6.76836 14.6818C6.51265 13.0773 7.60661 11.5695 9.21124 11.3148L33.3489 7.4831C34.9528 7.22849 36.4595 8.32229 36.7141 9.9262L40.3919 33.0914C40.6567 34.7589 39.5161 36.3241 37.8476 36.583L13.7111 40.3272C12.1702 40.5663 10.7261 39.5146 10.4807 37.9747L6.76836 14.6818Z" fill="url(#paint1_linear_0_441)"/>
</g>
<g clip-path="url(#clip2_0_441)">
<path fill-rule="evenodd" clip-rule="evenodd" d="M23.1534 21.629L29.2061 20.6704L28.2919 14.898L16.2974 16.7977L16.3058 16.8507L23.1534 21.629Z" fill="url(#paint2_linear_0_441)"/>
<path fill-rule="evenodd" clip-rule="evenodd" d="M23.1545 21.6289L17.1017 22.5875L18.0159 28.3599L30.0105 26.4602L30.0021 26.4072L23.1545 21.6289Z" fill="url(#paint3_linear_0_441)"/>
<path fill-rule="evenodd" clip-rule="evenodd" d="M18.0159 28.3599L24.0131 27.4101L24.9358 33.2359L18.0159 28.3599Z" fill="url(#paint4_linear_0_441)"/>
</g>
</g>
</g>
<defs>
<filter id="filter0_i_0_441" x="1.24023" y="10.5767" width="38.1887" height="36.5048" filterUnits="userSpaceOnUse" color-interpolation-filters="sRGB">
<feFlood flood-opacity="0" result="BackgroundImageFix"/>
<feBlend mode="normal" in="SourceGraphic" in2="BackgroundImageFix" result="shape"/>
<feColorMatrix in="SourceAlpha" type="matrix" values="0 0 0 0 0 0 0 0 0 0 0 0 0 0 0 0 0 0 127 0" result="hardAlpha"/>
<feOffset/>
<feGaussianBlur stdDeviation="0.5"/>
<feComposite in2="hardAlpha" operator="arithmetic" k2="-1" k3="1"/>
<feColorMatrix type="matrix" values="0 0 0 0 1 0 0 0 0 1 0 0 0 0 1 0 0 0 0.478261 0"/>
<feBlend mode="normal" in2="shape" result="effect1_innerShadow_0_441"/>
</filter>
<filter id="filter1_di_0_441" x="4.73132" y="7.4463" width="39.6987" height="38.9148" filterUnits="userSpaceOnUse" color-interpolation-filters="sRGB">
<feFlood flood-opacity="0" result="BackgroundImageFix"/>
<feColorMatrix in="SourceAlpha" type="matrix" values="0 0 0 0 0 0 0 0 0 0 0 0 0 0 0 0 0 0 127 0" result="hardAlpha"/>
<feOffset dx="1" dy="3"/>
<feGaussianBlur stdDeviation="1.5"/>
<feColorMatrix type="matrix" values="0 0 0 0 0 0 0 0 0 0 0 0 0 0 0 0 0 0 1 0"/>
<feBlend mode="normal" in2="BackgroundImageFix" result="effect1_dropShadow_0_441"/>
<feBlend mode="normal" in="SourceGraphic" in2="effect1_dropShadow_0_441" result="shape"/>
<feColorMatrix in="SourceAlpha" type="matrix" values="0 0 0 0 0 0 0 0 0 0 0 0 0 0 0 0 0 0 127 0" result="hardAlpha"/>
<feOffset dy="1"/>
<feGaussianBlur stdDeviation="0.5"/>
<feComposite in2="hardAlpha" operator="arithmetic" k2="-1" k3="1"/>
<feColorMatrix type="matrix" values="0 0 0 0 1 0 0 0 0 1 0 0 0 0 1 0 0 0 0.26087 0"/>
<feBlend mode="normal" in2="shape" result="effect2_innerShadow_0_441"/>
</filter>
<linearGradient id="paint0_linear_0_441" x1="-9.03015" y1="31.8385" x2="14.0288" y2="54.4426" gradientUnits="userSpaceOnUse">
<stop stop-color="#00F3FF"/>
<stop offset="0.358293" stop-color="#00A8FC"/>
<stop offset="1" stop-color="#0048DF"/>
</linearGradient>
<linearGradient id="paint1_linear_0_441" x1="6.30688" y1="11.7663" x2="10.913" y2="40.8481" gradientUnits="userSpaceOnUse">
<stop stop-color="white"/>
<stop offset="0.489734" stop-color="white"/>
<stop offset="1" stop-color="#D9F3FF"/>
</linearGradient>
<linearGradient id="paint2_linear_0_441" x1="28.7403" y1="15.1887" x2="18.1485" y2="15.224" gradientUnits="userSpaceOnUse">
<stop stop-color="#8DE4FF"/>
<stop offset="1" stop-color="#30CEFF"/>
</linearGradient>
<linearGradient id="paint3_linear_0_441" x1="29.1481" y1="21.0155" x2="18.5153" y2="22.6995" gradientUnits="userSpaceOnUse">
<stop stop-color="#00C5FF"/>
<stop offset="1" stop-color="#009AFF"/>
</linearGradient>
<linearGradient id="paint4_linear_0_441" x1="18.0159" y1="28.3599" x2="18.9386" y2="34.1858" gradientUnits="userSpaceOnUse">
<stop stop-color="#005AFF"/>
<stop offset="1" stop-color="#008DFF"/>
</linearGradient>
<clipPath id="clip0_0_441">
<rect width="46" height="46" fill="white"/>
</clipPath>
<clipPath id="clip1_0_441">
<rect width="41" height="42" fill="white" transform="translate(0 7)"/>
</clipPath>
<clipPath id="clip2_0_441">
<rect width="12.3184" height="17.6354" fill="white" transform="translate(16.1874 16.8151) rotate(-9)"/>
</clipPath>
</defs>
</svg>
